<svg
  id="logo-12"
  width="30"
  height="30"
  viewBox="0 0 30 30"
  fill="none"
  xmlns="http://www.w3.org/2000/svg"
>
  <path
    d="M20.99 23.759L3.05 11.384C1.232 10.13 1.85 7.51898 4.117 6.90498L23.184 1.72998C23.5879 1.58424 24.0207 1.53693 24.4466 1.59198C24.8724 1.64703 25.279 1.80285 25.6326 2.04651C25.9861 2.29017 26.2765 2.61464 26.4795 2.99299C26.6825 3.37134 26.7924 3.79266 26.8 4.22198L25.67 21.771C25.536 23.854 22.808 25.013 20.99 23.759Z"
    class="ccompli2"
    fill="#E9327C"
  ></path>
  <path
    d="M15.3 26.814L4.73098 6.14504C4.48938 5.6722 4.38307 5.14181 4.42376 4.61238C4.46445 4.08295 4.65057 3.57504 4.96158 3.14467C5.2726 2.7143 5.69643 2.37818 6.18634 2.17338C6.67625 1.96858 7.2132 1.90306 7.73798 1.98405L27.325 5.00704C27.7759 5.07665 28.2039 5.2523 28.5738 5.51955C28.9436 5.78681 29.2447 6.13803 29.4524 6.54434C29.66 6.95065 29.7683 7.40044 29.7682 7.85674C29.7681 8.31303 29.6597 8.7628 29.452 9.16904L20.429 26.815C20.1867 27.2865 19.8191 27.6821 19.3666 27.9582C18.9141 28.2344 18.3943 28.3804 17.8642 28.3803C17.3341 28.3802 16.8143 28.234 16.3619 27.9577C15.9095 27.6813 15.5421 27.2856 15.3 26.814V26.814Z"
    class="ccompli1"
    fill="#1DACE3"
  ></path>
  <path
    d="M26.752 4.91801L16.988 3.41101L5 6.66601L9.785 16.027L20.99 23.759C21.2372 23.9277 21.5091 24.0569 21.796 24.142L26.052 15.819L26.752 4.91801Z"
    class="ccustom"
    fill="#0b40a1"
  ></path>      
</svg>